Cover                                  
 
http://www.shotpix.com/images/04657306337217346367.png

Complete name                            : Comedown.2012.720p.BRRiP.DTS.x264-Acesn8s
Format                                   : Matroska
Format version                           : Version 2
File size                                : 1.99 GiB
Duration                                 : 1h 33mn
Overall bit rate                         : 3 041 Kbps
Encoded date                             : UTC 2013-03-14 13:23:23
Writing application                      : mkvmerge v5.7.0 ('The Whirlwind') built on Jul  8 2012 20:08:51
Writing library                          : libebml v1.2.3 + libmatroska v1.3.0

Video
ID                                       : 1
Format                                   : AVC
Format/Info                              : Advanced Video Codec
Format profile                           : High@L4.1
Format settings, CABAC                   : Yes
Format settings, ReFrames                : 5 frames
Codec ID                                 : V_MPEG4/ISO/AVC
Duration                                 : 1h 33mn
Bit rate                                 : 2 299 Kbps
Width                                    : 1 280 pixels
Height                                   : 688 pixels
Display aspect ratio                     : 1.85:1
Frame rate mode                          : Constant
Frame rate                               : 24.000 fps
Color space                              : YUV
Chroma subsampling                       : 4:2:0
Bit depth                                : 8 bits
Scan type                                : Progressive
Bits/(Pixel*Frame)                       : 0.109
Stream size                              : 1.46 GiB (73%)
Writing library                          : x264 core 129 r2245 bc13772
Default                                  : Yes
Forced                                   : No

Audio
ID                                       : 2
Format                                   : DTS
Format/Info                              : Digital Theater Systems
Mode                                     : 16
Format settings, Endianness              : Big
Codec ID                                 : A_DTS
Duration                                 : 1h 33mn
Bit rate mode                            : Constant
Bit rate                                 : 755 Kbps
Channel(s)                               : 6 channels
Channel positions                        : Front: L C R, Side: L R, LFE
Sampling rate                            : 48.0 KHz
Bit depth                                : 24 bits
Compression mode                         : Lossy
Stream size                              : 506 MiB (25%)
Language                                 : English
Default                                  : Yes
Forced                                   : No

Source                                   : 1080p-SoNiDo (thanks)


Cast: Adam Deacon, Jessica Barden, Sophie Stuckey 

Plot: Six friends who turn the deserted the tower block they lived in as 
kids into a pirate radio station soon learn they are not alone, as a 
resident psychopath begins hunting them down. 

IMDb:
 
http://www.imdb.com/title/tt1376168/

Screens:
 
http://www.shotpix.com/images/86715027666871663728.jpg
 
http://www.shotpix.com/images/47324428349756037624.jpg
 
http://www.shotpix.com/images/71636183617901456425.jpg
 
http://www.shotpix.com/images/68610809333995436877.jpg
 
http://www.shotpix.com/images/52699095735377813523.jpg